<svg xmlns="http://www.w3.org/2000/svg" viewBox="0 0 502.21 156.81"><defs><style>.cls-1{fill:#262424;}</style></defs><title>Asset 1</title><g id="Layer_2" data-name="Layer 2"><g id="Layer_1-2" data-name="Layer 1"><path class="cls-1" d="M3.56,128.26c0-4.22-.08-4.86-2.41-5.06l-1-.08c-.24-.16-.16-.88.08-1,2,.08,3.25.12,5.06.12,1.57,0,2.93,0,4.66-.12.24.12.32.84.08,1l-.76.08c-2.33.24-2.41.84-2.41,5.06v4.62c0,.76.08,1.53.52,1.53A2.29,2.29,0,0,0,8.5,134c.56-.48,1.61-1.53,2-1.93l4.34-4.3A44.85,44.85,0,0,0,18,124.4a1.18,1.18,0,0,0,.28-.64c0-.16-.16-.28-.68-.4l-1.08-.24a.67.67,0,0,1,.08-1c1.41.08,3,.12,4.42.12s2.77,0,4-.12a.74.74,0,0,1,.08,1,10,10,0,0,0-3.74,1.13,40.32,40.32,0,0,0-5.62,4.66l-3.61,3.41c-.56.56-.92.93-.92,1.25s.24.6.76,1.25c3.82,4.38,6.91,8,10,11.29a5,5,0,0,0,3.21,1.65l1.08.12a.7.7,0,0,1-.08,1c-1-.08-2.61-.12-4.5-.12-1.65,0-3.05,0-4.9.12-.28-.08-.4-.76-.16-1l.92-.16c.56-.08,1-.2,1-.4s-.28-.56-.56-.92c-.76-1-1.81-2-3.33-3.78L11.43,139c-2.29-2.57-2.93-3.37-3.9-3.37-.6,0-.68.52-.68,1.93v5.18c0,4.22.08,4.78,2.33,5l1.08.12c.24.16.16.88-.08,1-2-.08-3.33-.12-4.9-.12s-3,0-4.66.12a.77.77,0,0,1-.08-1l.8-.12c2.13-.32,2.21-.8,2.21-5Z"/><path class="cls-1" d="M37.67,128.34c0-4.46-.4-4.94-2.77-5.14l-1-.08c-.24-.16-.16-.88.08-1,2.33.08,3.7.12,5.38.12s3,0,4.58-.12c.24.12.32.84.08,1l-.6.08c-2.37.32-2.45.88-2.45,5.14v14.9c0,3.17-.16,5.95-.92,7.79-1.33,3.21-4.18,5.78-7.91,5.78-.48,0-1.73,0-1.73-.84s.6-1.85,1.45-1.85a5,5,0,0,1,1.49.24,6.28,6.28,0,0,0,1.69.28,1.72,1.72,0,0,0,1.61-1c.92-1.89,1-7.91,1-10.08Z"/><path class="cls-1" d="M77.29,122.23a53.62,53.62,0,0,0,5.42-.12,45.4,45.4,0,0,1,.64,5.3.75.75,0,0,1-1,.12c-.6-1.89-1-3.37-3.05-3.86a20,20,0,0,0-3.9-.2H72.51c-1.16,0-1.16.08-1.16,1.61v8c0,1.13.12,1.13,1.33,1.13H75a15.07,15.07,0,0,0,3.41-.24c.48-.16.76-.4,1-1.41l.32-1.65a.79.79,0,0,1,1,0c0,1-.16,2.53-.16,4.06s.16,3,.16,3.86a.79.79,0,0,1-1,0l-.36-1.57a1.72,1.72,0,0,0-1.24-1.53,13.46,13.46,0,0,0-3.09-.2H72.67c-1.2,0-1.33,0-1.33,1.09v5.66c0,2.17.12,3.49.72,4.18.48.48,1.33.92,4.9.92,3.05,0,4.22-.12,5.1-.6a10.1,10.1,0,0,0,2.85-3.9.75.75,0,0,1,1,.28,33.71,33.71,0,0,1-1.81,5.58c-3.62-.08-7.15-.12-10.76-.12h-3.7c-1.61,0-3,0-5.34.12a.78.78,0,0,1-.08-1l1.37-.12c2.25-.2,2.45-.8,2.45-5v-5.9c0-1.17,0-1.17-1.77-1.17H63c-1.73,0-1.69.08-2.61,1.77a81.51,81.51,0,0,0-4.06,8.52c-.44,1.13-.4,1.45.6,1.61l2.17.32a.78.78,0,0,1,0,1c-1.61-.08-3.05-.12-4.42-.12-1.53,0-2.57.08-4.14.12a.62.62,0,0,1,0-1l1.25-.2c1-.16,1.57-.64,2.81-2.89,3.74-6.83,7.55-14.22,9.76-18.52a7,7,0,0,0,1-2.29c0-.32-.32-.4-.88-.48l-2.41-.36a.67.67,0,0,1,.12-1c1.89.08,2.93.12,4.7.12Zm-11,12c1.73,0,1.77,0,1.77-1.29v-7.83c0-.48,0-1.29-.24-1.45h-.2a3.48,3.48,0,0,0-.92,1.25c-1.93,3.66-3.66,7.19-4.26,8.43-.4.84-.4.88,1.16.88Z"/><path class="cls-1" d="M97.86,128.3c0-3.81-.12-4.5-1.77-4.7l-1.29-.16a.67.67,0,0,1,0-1c2.25-.2,5-.32,9-.32a14.22,14.22,0,0,1,6.71,1.21,6,6,0,0,1,3.33,5.62c0,3.82-3,5.9-5,6.71-.2.24,0,.64.2,1,3.21,5.18,5.34,8.39,8.07,10.68a4.8,4.8,0,0,0,2.77,1.13.34.34,0,0,1,0,.56,6.3,6.3,0,0,1-1.77.2c-3.41,0-5.46-1-8.31-5.06-1-1.49-2.69-4.26-3.94-6.07-.6-.88-1.25-1.29-2.85-1.29-1.81,0-1.89,0-1.89.88v5.06c0,4.22.08,4.7,2.41,5l.84.12a.78.78,0,0,1-.08,1c-1.81-.08-3.17-.12-4.78-.12s-3.13,0-5,.12a.77.77,0,0,1-.08-1l1-.12c2.33-.28,2.41-.8,2.41-5Zm3.29,5.74a3.14,3.14,0,0,0,.12,1.32c.12.12.72.2,2.77.2a6.73,6.73,0,0,0,4.14-1c1.08-.85,2-2.25,2-5,0-3.17-2-6.19-6.43-6.19-2.49,0-2.61.16-2.61,1.29Z"/><path class="cls-1" d="M148.31,149.38A12.55,12.55,0,0,1,142,147.9a18.57,18.57,0,0,1-1.08-5.62c.2-.28.8-.36,1-.12.6,2,2.25,6,6.91,6,3.37,0,5-2.21,5-4.62,0-1.77-.36-3.73-3.29-5.62l-3.82-2.49c-2-1.33-4.34-3.62-4.34-6.91,0-3.82,3-6.91,8.19-6.91a15.51,15.51,0,0,1,3.73.52,5.41,5.41,0,0,0,1.41.24,17.59,17.59,0,0,1,.72,4.9c-.16.24-.8.36-1,.12-.52-1.93-1.61-4.54-5.46-4.54s-4.78,2.61-4.78,4.46c0,2.33,1.93,4,3.41,4.94l3.21,2c2.53,1.57,5,3.9,5,7.71C156.87,146.37,153.53,149.38,148.31,149.38Z"/><path class="cls-1" d="M167.2,135.77a13.88,13.88,0,0,1,14.3-14.18c9.28,0,13.94,6.71,13.94,13.78a13.71,13.71,0,0,1-13.94,14C172.59,149.38,167.2,143,167.2,135.77Zm24.22.84c0-6.63-2.93-13.78-10.6-13.78-4.18,0-9.6,2.85-9.6,11.65,0,5.95,2.89,13.66,10.8,13.66C186.84,148.14,191.42,144.52,191.42,136.61Z"/><path class="cls-1" d="M219.31,138c.92,1.89,1.81,3.73,2.77,5.5h.08c1.08-1.89,2.09-4,3.09-6l3.78-7.67c1.81-3.66,3-5.87,3.05-7.71,1.37.12,2.21.12,3,.12,1,0,2.33,0,3.57-.12a.84.84,0,0,1,0,1l-.84.08c-2.53.24-2.85,1-2.81,3.81.08,4.26.12,11.69.44,17.47.12,2,.08,3.09,2,3.25l1.29.12a.74.74,0,0,1-.08,1c-1.65-.08-3.29-.12-4.74-.12s-3.21,0-4.86.12a.74.74,0,0,1-.08-1l1.17-.12c2-.2,2-.84,2-3.41L232,127.57h-.08c-.28.44-1.81,3.65-2.61,5.22l-3.57,7c-1.81,3.54-3.62,7.31-4.34,9.16a.48.48,0,0,1-.4.16.5.5,0,0,1-.36-.16c-.68-2.13-2.61-6.07-3.54-8l-3.62-7.75c-.84-1.85-1.69-3.94-2.57-5.78h-.08c-.16,2.49-.28,4.82-.4,7.15s-.28,6-.28,9.44c0,3,.24,3.62,1.81,3.73l1.53.12c.28.24.24.88,0,1-1.37-.08-2.93-.12-4.46-.12-1.29,0-2.73,0-4.1.12a.8.8,0,0,1-.08-1l.88-.12c1.69-.24,2.25-.48,2.49-3.29.24-2.65.44-4.86.68-8.84.2-3.33.36-6.75.44-9,.08-2.53-.24-3.13-2.69-3.45l-.64-.08a.75.75,0,0,1,.16-1c1.2.08,2.17.12,3.17.12s2,0,3.33-.12c-.16,1.57.84,4.06,2.09,6.63Z"/><path class="cls-1" d="M262.34,138c.92,1.89,1.81,3.73,2.77,5.5h.08c1.09-1.89,2.09-4,3.09-6l3.78-7.67c1.81-3.66,3-5.87,3.05-7.71,1.37.12,2.21.12,3,.12,1,0,2.33,0,3.58-.12a.85.85,0,0,1,0,1l-.84.08c-2.53.24-2.85,1-2.81,3.81.08,4.26.12,11.69.44,17.47.12,2,.08,3.09,2,3.25l1.29.12a.74.74,0,0,1-.08,1c-1.65-.08-3.3-.12-4.74-.12s-3.21,0-4.86.12a.75.75,0,0,1-.08-1l1.17-.12c2-.2,2-.84,2-3.41L275,127.57h-.08c-.28.44-1.81,3.65-2.61,5.22l-3.57,7c-1.81,3.54-3.62,7.31-4.34,9.16a.47.47,0,0,1-.4.16.5.5,0,0,1-.36-.16c-.68-2.13-2.61-6.07-3.54-8l-3.62-7.75c-.84-1.85-1.69-3.94-2.57-5.78h-.08c-.16,2.49-.28,4.82-.4,7.15s-.28,6-.28,9.44c0,3,.24,3.62,1.81,3.73l1.53.12c.28.24.24.88,0,1-1.37-.08-2.93-.12-4.46-.12-1.29,0-2.73,0-4.1.12a.79.79,0,0,1-.08-1l.88-.12c1.69-.24,2.25-.48,2.49-3.29.24-2.65.44-4.86.68-8.84.2-3.33.36-6.75.44-9,.08-2.53-.24-3.13-2.69-3.45l-.64-.08a.75.75,0,0,1,.16-1c1.2.08,2.17.12,3.17.12s2,0,3.33-.12c-.16,1.57.84,4.06,2.09,6.63Z"/><path class="cls-1" d="M294.88,128.26c0-4.18-.08-4.78-2.45-5.06l-.64-.08c-.24-.16-.16-.88.08-1,1.73.08,3.09.12,4.74.12h7.55a53.62,53.62,0,0,0,5.42-.12,45.11,45.11,0,0,1,.64,5.34.79.79,0,0,1-1,.08c-.6-1.89-1-3.29-3.05-3.82a19.16,19.16,0,0,0-3.9-.24h-2.89c-1.21,0-1.21.08-1.21,1.61v8c0,1.13.12,1.13,1.32,1.13h2.33a15.07,15.07,0,0,0,3.41-.24c.48-.16.76-.4,1-1.41l.32-1.65a.79.79,0,0,1,1,0c0,1-.16,2.53-.16,4.06s.16,3,.16,3.86a.79.79,0,0,1-1,0l-.36-1.57a1.72,1.72,0,0,0-1.25-1.53,13.45,13.45,0,0,0-3.09-.2H299.5c-1.2,0-1.32,0-1.32,1.09v5.66c0,2.13.12,3.49.76,4.18.48.48,1.33.92,4.86.92,3.09,0,4.26-.16,5.14-.6a10.08,10.08,0,0,0,2.85-3.9.74.74,0,0,1,1,.28,35.2,35.2,0,0,1-1.81,5.58c-3.61-.08-7.19-.12-10.76-.12h-3.62c-1.73,0-3.09,0-5.46.12a.78.78,0,0,1-.08-1l1.33-.12c2.29-.2,2.49-.8,2.49-5Z"/><path class="cls-1" d="M324.74,128.3c0-3.81-.12-4.5-1.77-4.7l-1.29-.16a.67.67,0,0,1,0-1c2.25-.2,5-.32,9-.32a14.21,14.21,0,0,1,6.71,1.21,6,6,0,0,1,3.33,5.62c0,3.82-3,5.9-5,6.71-.2.24,0,.64.2,1,3.21,5.18,5.34,8.39,8.07,10.68a4.8,4.8,0,0,0,2.77,1.13.34.34,0,0,1,0,.56,6.32,6.32,0,0,1-1.77.2c-3.41,0-5.46-1-8.32-5.06-1-1.49-2.69-4.26-3.93-6.07-.6-.88-1.25-1.29-2.85-1.29-1.81,0-1.89,0-1.89.88v5.06c0,4.22.08,4.7,2.41,5l.84.12a.78.78,0,0,1-.08,1c-1.81-.08-3.17-.12-4.78-.12s-3.13,0-5,.12a.78.78,0,0,1-.08-1l1-.12c2.33-.28,2.41-.8,2.41-5ZM328,134a3.22,3.22,0,0,0,.12,1.32c.12.12.72.2,2.77.2a6.74,6.74,0,0,0,4.14-1c1.08-.85,2-2.25,2-5,0-3.17-2-6.19-6.43-6.19-2.49,0-2.61.16-2.61,1.29Z"/><path class="cls-1" d="M360.33,133.56c0,1.08.12,1.08,1.33,1.08h2.73a15.18,15.18,0,0,0,3.41-.24c.44-.16.76-.36,1-1.41l.36-1.61a.85.85,0,0,1,1,0c0,1-.16,2.57-.16,4.06s.16,3,.16,3.9c-.16.24-.76.24-1,0l-.4-1.57a1.93,1.93,0,0,0-1.28-1.53,13.7,13.7,0,0,0-3.09-.2h-2.73c-1.2,0-1.33,0-1.33,1.08v5.58c0,4.22.08,4.82,2.45,5l1.37.12c.24.16.16.88-.08,1-2.37-.08-3.74-.12-5.34-.12-1.77,0-3.13,0-5,.12a.78.78,0,0,1-.08-1l1-.12c2.33-.28,2.41-.8,2.41-5V128.26c0-4.22-.08-4.78-2.41-5.06l-.64-.08c-.24-.16-.16-.88.08-1,1.69.08,3.05.12,4.66.12h7.39a54.09,54.09,0,0,0,5.42-.12c0,1.85,0,3.78.12,5.3a.72.72,0,0,1-1,.12c-.32-1.81-.8-3.29-2.81-3.82a17.2,17.2,0,0,0-3.9-.24h-2.45c-1.21,0-1.21.08-1.21,1.61Z"/><path class="cls-1" d="M385,128.26c0-4.18-.08-4.78-2.45-5.06l-.64-.08c-.24-.16-.16-.88.08-1,1.73.08,3.09.12,4.74.12h7.55a53.64,53.64,0,0,0,5.42-.12,45.46,45.46,0,0,1,.64,5.34.79.79,0,0,1-1,.08c-.6-1.89-1-3.29-3.05-3.82a19.19,19.19,0,0,0-3.9-.24h-2.89c-1.2,0-1.2.08-1.2,1.61v8c0,1.13.12,1.13,1.33,1.13H392a15.05,15.05,0,0,0,3.41-.24c.48-.16.76-.4,1-1.41l.32-1.65a.79.79,0,0,1,1,0c0,1-.16,2.53-.16,4.06s.16,3,.16,3.86a.79.79,0,0,1-1,0l-.36-1.57a1.72,1.72,0,0,0-1.24-1.53,13.47,13.47,0,0,0-3.09-.2h-2.33c-1.21,0-1.33,0-1.33,1.09v5.66c0,2.13.12,3.49.76,4.18.48.48,1.33.92,4.86.92,3.09,0,4.26-.16,5.14-.6A10.12,10.12,0,0,0,402,143a.74.74,0,0,1,1,.28,35.21,35.21,0,0,1-1.81,5.58c-3.62-.08-7.19-.12-10.76-.12h-3.61c-1.73,0-3.09,0-5.46.12a.78.78,0,0,1-.08-1l1.33-.12c2.29-.2,2.49-.8,2.49-5Z"/><path class="cls-1" d="M414.9,128.26c0-4.22-.08-4.86-2.61-5.06l-1-.08c-.24-.16-.16-.88.08-1,2.25.08,3.62.12,5.22.12s2.93,0,4.94-.12c.24.12.32.84.08,1l-1,.08c-2.37.2-2.45.84-2.45,5.06v14c0,2.53.12,3.57.84,4.34.44.44,1.2.92,4.38.92,3.41,0,4.26-.16,4.9-.52a8.57,8.57,0,0,0,2.65-4c.24-.2,1,0,1,.24a32.18,32.18,0,0,1-1.69,5.62c-2-.08-5.87-.12-10-.12h-3.7c-1.69,0-3,0-5.22.12a.78.78,0,0,1-.08-1l1.21-.12c2.33-.24,2.41-.8,2.41-5Z"/><path class="cls-1" d="M443.52,127.45c0-2.81-.2-3.65-1.89-3.9l-.88-.12a.6.6,0,0,1,0-1c3.41-.2,6.67-.32,10.08-.32a25.17,25.17,0,0,1,8.84,1.21,12,12,0,0,1,8.15,11.85,13.17,13.17,0,0,1-7,12,19.39,19.39,0,0,1-9,1.93c-2.57,0-5.14-.32-6.55-.32-1.69,0-3.13,0-5,.12a.78.78,0,0,1-.08-1l.92-.12c2.33-.32,2.41-.8,2.41-5Zm3.29,14.34c0,2.13.12,3.41.8,4.38.88,1.25,2.41,1.65,4.94,1.65,7.79,0,11.29-5.1,11.29-12.57,0-4.42-2.13-11.89-12.65-11.89-2.37,0-3.65.32-4,.56s-.4,1.25-.4,3.05Z"/><path class="cls-1" d="M490.88,142.72c0,4.22.08,4.82,2.41,5l1.29.12c.24.16.16.88-.08,1-2.29-.08-3.66-.12-5.26-.12s-3,0-5.58.12a.7.7,0,0,1,0-1l1.44-.12c2.29-.2,2.49-.8,2.49-5v-18c0-1.25,0-1.29-1.2-1.29h-2.21c-1.73,0-3.94.08-4.94,1a7.3,7.3,0,0,0-1.81,2.77.77.77,0,0,1-1-.28,42.13,42.13,0,0,0,1.53-6,1,1,0,0,1,.76,0c.24,1.29,1.56,1.25,3.41,1.25h16.27c2.17,0,2.53-.08,3.13-1.12.2-.08.64,0,.72.12a24.22,24.22,0,0,0-.6,6.11c-.16.32-.84.32-1,.08-.12-1-.4-2.49-1-2.93-.92-.68-2.45-1-4.66-1H492c-1.2,0-1.16,0-1.16,1.37Z"/><path class="cls-1" d="M277.6,28a9.05,9.05,0,0,0-5.72,2,12.33,12.33,0,0,0-9.92-5.7c-4.63,0-4.22,1.69-6.48,1.69h.09a3.89,3.89,0,0,1-2.37-.92V22.18c2.8-.67,4.83-2.67,4.83-5,0-2.61-2.48-4.77-5.74-5.19V9.43H255a1.42,1.42,0,0,0-.08.47,1.44,1.44,0,1,0,2.89,0,1.5,1.5,0,0,0,0-.22l.22,0a1.44,1.44,0,1,0,0-2.89l-.22,0a1.5,1.5,0,0,0,0-.22,1.44,1.44,0,1,0-2.89,0,1.42,1.42,0,0,0,.08.47H252.3V4.45a1.44,1.44,0,1,0,.47-2.81l-.22,0a1.57,1.57,0,0,0,0-.22,1.44,1.44,0,1,0-2.89,0,1.31,1.31,0,0,0,0,.22l-.22,0a1.44,1.44,0,0,0,0,2.89,1.43,1.43,0,0,0,.47-.08V7.08h-2.68a1.44,1.44,0,1,0-2.81-.47,1.48,1.48,0,0,0,0,.22l-.22,0a1.44,1.44,0,0,0,0,2.89l.22,0a1.48,1.48,0,0,0,0,.22,1.44,1.44,0,1,0,2.81-.47H250V12c-3.26.42-5.74,2.59-5.74,5.19,0,2.36,2,4.35,4.83,5V25a3.87,3.87,0,0,1-2.43,1h.11c-2.26,0-1.84-1.69-6.48-1.69a12.33,12.33,0,0,0-9.92,5.7,9.06,9.06,0,0,0-5.72-2c-4.69,0-11.17,3.24-11.17,11.84s7.7,14.72,11.5,16.84h0v13h52.33v-13c3.79-2.12,11.5-8.24,11.5-16.84S282.29,28,277.6,28Zm-52.1,5H226a4.74,4.74,0,0,1,2,.36,16.86,16.86,0,0,0-.48,4.11c0,9.19,5.72,14.5,8.27,18h-9c-1.35-1.94-7.23-7.18-7.23-13.76C219.59,34.54,224.25,33.07,225.5,33.07Zm15.65,22.47c-1.44-2.9-6-9.1-6-16,0-8.35,6.17-10.16,7.7-10.16a11.58,11.58,0,0,1,3.53.41l2.51,25.75Zm12.2,0,2.51-25.75a11.59,11.59,0,0,1,3.53-.41c1.53,0,7.7,1.81,7.7,10.16,0,6.9-4.59,13.09-6,16Zm13.08,0c2.55-3.51,8.27-8.82,8.27-18a16.75,16.75,0,0,0-.48-4.11,4.75,4.75,0,0,1,2-.36h.48c1.25,0,5.91,1.48,5.91,8.71,0,6.6-5.77,11.67-7.23,13.76Z"/><path class="cls-1" d="M115.83,84c0-1.71,0-2-1-2l-.41,0c-.1-.06-.06-.36,0-.41.8,0,1.32,0,2,0s1.19,0,1.89,0c.1,0,.13.34,0,.41l-.31,0c-.94.1-1,.34-1,2v1.87c0,.31,0,.62.21.62a.93.93,0,0,0,.46-.18c.23-.2.65-.62.83-.78l1.76-1.74a18.48,18.48,0,0,0,1.27-1.35.48.48,0,0,0,.11-.26c0-.07-.06-.11-.28-.16l-.44-.1a.27.27,0,0,1,0-.41c.57,0,1.22,0,1.79,0s1.12,0,1.61,0a.3.3,0,0,1,0,.41,4,4,0,0,0-1.51.46,16.35,16.35,0,0,0-2.28,1.89l-1.46,1.38c-.23.23-.37.37-.37.5s.1.24.31.5c1.54,1.77,2.8,3.23,4.06,4.57a2,2,0,0,0,1.3.67l.44,0a.28.28,0,0,1,0,.41c-.42,0-1.06,0-1.82,0s-1.24,0-2,0c-.11,0-.16-.31-.07-.41l.37-.06c.23,0,.39-.08.39-.16s-.11-.23-.23-.37c-.31-.39-.73-.83-1.35-1.53L119,88.33c-.93-1-1.19-1.37-1.58-1.37s-.28.21-.28.78v2.1c0,1.71,0,1.93.94,2l.44,0c.1.06.06.36,0,.41-.8,0-1.35,0-2,0s-1.22,0-1.89,0a.31.31,0,0,1,0-.41l.33,0c.86-.13.89-.32.89-2Z"/><path class="cls-1" d="M140.35,90.62c0,.65.1,1,.39,1.15a.13.13,0,0,1,0,.2,3.6,3.6,0,0,0-.8.15,12.7,12.7,0,0,1-2.91.42,6.77,6.77,0,0,1-5-1.8,5.12,5.12,0,0,1-1.5-3.69A5.58,5.58,0,0,1,132,83.19a6.73,6.73,0,0,1,5.15-1.9,9.76,9.76,0,0,1,2.06.24,4.23,4.23,0,0,0,1,.15A18.23,18.23,0,0,0,140.5,84c0,.13-.34.15-.44,0-.45-1.76-1.67-2.31-3.33-2.31-3.15,0-4.53,2.24-4.53,4.68,0,3.12,1.61,5.58,4.88,5.58,1,0,1.61-.21,1.79-.49a1.83,1.83,0,0,0,.16-.93V90c0-1.37,0-1.46-1.06-1.58l-.72-.08a.27.27,0,0,1,0-.41c.47,0,1.37,0,2.32,0,.63,0,1.19,0,1.72,0a.28.28,0,0,1,0,.41l-.26,0c-.68.08-.7.54-.7,1.37Z"/><path class="cls-1" d="M149.73,84c0-1.71,0-2-1.06-2l-.41,0c-.1-.06-.06-.36,0-.41.91,0,1.46,0,2.11,0s1.19,0,2,0c.1,0,.13.34,0,.41l-.39,0c-1,.08-1,.34-1,2v5.66c0,1,0,1.45.34,1.76s.49.37,1.77.37,1.72-.06,2-.21A3.47,3.47,0,0,0,156.23,90c.1-.08.41,0,.41.1a13.06,13.06,0,0,1-.68,2.28c-.83,0-2.37,0-4,0h-1.5c-.68,0-1.2,0-2.11,0a.32.32,0,0,1,0-.41l.49,0c.94-.1,1-.32,1-2Z"/><path class="cls-1" d="M180.3,87c-.78,0-.81,0-.81.52v2.29c0,1.71.08,1.93,1,2l.47,0c.1.06.06.36,0,.41-.88,0-1.43,0-2.06,0s-1.25,0-1.88,0a.32.32,0,0,1,0-.41l.28,0c.91-.16.94-.32.94-2V84c0-1.71-.11-2-1-2l-.42,0c-.1-.06-.06-.36,0-.41.8,0,1.35,0,2,0s1.19,0,1.89,0c.1,0,.13.34,0,.41l-.31,0c-.94.1-1,.34-1,2v1.87c0,.5,0,.52.81.52h4.65c.78,0,.81,0,.81-.52V84c0-1.71,0-2-1-2l-.31,0c-.1-.06-.07-.36,0-.41.75,0,1.3,0,2,0s1.19,0,1.92,0c.1,0,.13.34,0,.41l-.34,0c-.94.1-1,.34-1,2v5.85c0,1.71,0,1.92,1,2l.39,0c.1.06.06.36,0,.41-.78,0-1.33,0-2,0s-1.25,0-2,0a.32.32,0,0,1,0-.41l.31,0c1-.16,1-.32,1-2V87.55c0-.49,0-.52-.81-.52Z"/><path class="cls-1" d="M195.6,87a5.62,5.62,0,0,1,5.79-5.74A5.35,5.35,0,0,1,207,86.86a5.55,5.55,0,0,1-5.64,5.67A5.47,5.47,0,0,1,195.6,87Zm9.8.34c0-2.68-1.19-5.58-4.29-5.58-1.69,0-3.88,1.15-3.88,4.71,0,2.4,1.17,5.53,4.37,5.53C203.55,92,205.41,90.57,205.41,87.37Z"/><path class="cls-1" d="M216.88,86.13c0,.44,0,.44.54.44h1.11a6.16,6.16,0,0,0,1.38-.1c.18-.06.31-.15.41-.57l.15-.65a.34.34,0,0,1,.42,0c0,.39-.06,1-.06,1.64s.06,1.2.06,1.58c-.06.1-.31.1-.42,0l-.16-.63a.78.78,0,0,0-.52-.62,5.5,5.5,0,0,0-1.25-.08h-1.11c-.49,0-.54,0-.54.44v2.26c0,1.71,0,2,1,2l.55,0c.1.06.07.36,0,.41-1,0-1.51,0-2.16,0s-1.27,0-2,0a.32.32,0,0,1,0-.41l.41,0c.94-.11,1-.32,1-2V84c0-1.71,0-1.93-1-2l-.26,0c-.1-.06-.07-.36,0-.41.68,0,1.24,0,1.89,0h3a21.55,21.55,0,0,0,2.19,0c0,.75,0,1.53,0,2.15a.29.29,0,0,1-.39,0c-.13-.73-.33-1.33-1.14-1.55a7,7,0,0,0-1.58-.1h-1c-.49,0-.49,0-.49.65Z"/><path class="cls-1" d="M230,84c0-1.71,0-2-1.06-2l-.41,0c-.1-.06-.07-.36,0-.41.91,0,1.46,0,2.11,0s1.19,0,2,0c.1,0,.13.34,0,.41l-.39,0c-1,.08-1,.34-1,2v5.66c0,1,0,1.45.34,1.76s.49.37,1.77.37,1.72-.06,2-.21A3.46,3.46,0,0,0,236.47,90c.1-.08.41,0,.41.1a13.14,13.14,0,0,1-.68,2.28c-.83,0-2.37,0-4,0h-1.5c-.68,0-1.2,0-2.11,0a.32.32,0,0,1,0-.41l.49,0c.94-.1,1-.32,1-2Z"/><path class="cls-1" d="M244.65,84c0-1.69,0-1.93-1-2l-.26,0c-.1-.06-.07-.36,0-.41.7,0,1.25,0,1.92,0h3.06a21.35,21.35,0,0,0,2.19,0,18.35,18.35,0,0,1,.26,2.16.32.32,0,0,1-.41,0c-.24-.76-.39-1.33-1.24-1.55a7.78,7.78,0,0,0-1.58-.1h-1.17c-.49,0-.49,0-.49.65V86c0,.46,0,.46.54.46h.94a6,6,0,0,0,1.38-.1c.19-.06.31-.16.39-.57l.13-.67a.32.32,0,0,1,.42,0c0,.39-.07,1-.07,1.64s.07,1.2.07,1.56a.32.32,0,0,1-.42,0l-.15-.63a.69.69,0,0,0-.5-.62,5.34,5.34,0,0,0-1.25-.08h-.94c-.49,0-.54,0-.54.44v2.29c0,.86,0,1.41.31,1.69s.54.37,2,.37a4.76,4.76,0,0,0,2.08-.24A4.06,4.06,0,0,0,251.49,90a.3.3,0,0,1,.41.11,14.17,14.17,0,0,1-.73,2.26c-1.46,0-2.91,0-4.36,0h-1.46c-.7,0-1.25,0-2.21,0a.32.32,0,0,1,0-.41l.54,0c.93-.08,1-.32,1-2Z"/><path class="cls-1" d="M259.18,83.27c-.37-.91-.62-1.25-1.32-1.33l-.29,0a.27.27,0,0,1,0-.41c.47,0,1,0,1.69,0s1.29,0,2,0a.29.29,0,0,1,0,.41l-.24,0c-.62.08-.75.18-.76.31a20.32,20.32,0,0,0,.81,2.28c.75,1.89,1.5,3.75,2.31,5.61.5-1.07,1.19-2.75,1.56-3.61.47-1.11,1.24-2.94,1.51-3.64a1.74,1.74,0,0,0,.15-.63c0-.11-.16-.24-.73-.31l-.29,0a.29.29,0,0,1,0-.41c.45,0,1.07,0,1.69,0s1,0,1.58,0a.32.32,0,0,1,0,.41l-.49,0a1,1,0,0,0-.85.57,39.43,39.43,0,0,0-1.82,3.74l-.88,2c-.65,1.49-1.42,3.38-1.69,4.24a.32.32,0,0,1-.18,0,.65.65,0,0,1-.24,0,19.18,19.18,0,0,0-.75-2.16Z"/><path class="cls-1" d="M276.3,84c0-1.69,0-1.93-1-2l-.26,0c-.1-.06-.06-.36,0-.41.7,0,1.25,0,1.92,0h3.05a21.33,21.33,0,0,0,2.19,0,18.09,18.09,0,0,1,.26,2.16.32.32,0,0,1-.41,0c-.25-.76-.39-1.33-1.24-1.55a7.79,7.79,0,0,0-1.58-.1h-1.17c-.49,0-.49,0-.49.65V86c0,.46,0,.46.54.46h.94a6,6,0,0,0,1.38-.1c.2-.06.31-.16.39-.57l.13-.67a.32.32,0,0,1,.42,0c0,.39-.07,1-.07,1.64s.07,1.2.07,1.56a.32.32,0,0,1-.42,0l-.15-.63a.69.69,0,0,0-.5-.62,5.36,5.36,0,0,0-1.25-.08h-.94c-.49,0-.54,0-.54.44v2.29c0,.86,0,1.41.31,1.69s.54.37,2,.37a4.76,4.76,0,0,0,2.08-.24A4.08,4.08,0,0,0,283.15,90a.3.3,0,0,1,.41.11,14.17,14.17,0,0,1-.73,2.26c-1.46,0-2.91,0-4.36,0H277c-.7,0-1.25,0-2.21,0a.31.31,0,0,1,0-.41l.54,0c.93-.08,1-.32,1-2Z"/><path class="cls-1" d="M291.48,84c0-1.54,0-1.82-.72-1.9l-.52-.07a.27.27,0,0,1,0-.41c.91-.08,2-.13,3.62-.13a5.76,5.76,0,0,1,2.71.49A2.42,2.42,0,0,1,298,84.26a3,3,0,0,1-2,2.71c-.08.1,0,.26.08.39a17.55,17.55,0,0,0,3.27,4.32,2,2,0,0,0,1.12.45.14.14,0,0,1,0,.23,2.53,2.53,0,0,1-.71.08c-1.38,0-2.21-.41-3.37-2-.42-.6-1.09-1.72-1.59-2.45a1.16,1.16,0,0,0-1.15-.52c-.73,0-.76,0-.76.36v2c0,1.71,0,1.9,1,2l.34,0a.32.32,0,0,1,0,.41c-.73,0-1.28,0-1.93,0s-1.27,0-2,0a.32.32,0,0,1,0-.41l.41,0c.94-.11,1-.32,1-2Zm1.33,2.33a1.29,1.29,0,0,0,0,.54s.29.08,1.12.08a2.72,2.72,0,0,0,1.67-.42,2.33,2.33,0,0,0,.81-2,2.39,2.39,0,0,0-2.6-2.5c-1,0-1.06.06-1.06.52Z"/><path class="cls-1" d="M312.19,88.5c-.12-.36-.18-.41-.67-.41h-2.45c-.41,0-.5,0-.62.39l-.57,1.71a6.24,6.24,0,0,0-.36,1.35c0,.19.08.29.47.32l.54,0a.26.26,0,0,1,0,.41c-.42,0-.93,0-1.69,0-.54,0-1.12,0-1.56,0a.32.32,0,0,1,0-.41l.54,0a1.08,1.08,0,0,0,1-.8c.29-.75.75-1.81,1.43-3.62l1.66-4.39a2.33,2.33,0,0,0,.28-1.15,1.83,1.83,0,0,0,.84-.62.23.23,0,0,1,.24.15c.21.71.47,1.46.72,2.18l2.23,6.53c.47,1.4.68,1.64,1.38,1.72l.44,0a.32.32,0,0,1,0,.41c-.67,0-1.24,0-2,0s-1.4,0-1.87,0a.27.27,0,0,1,0-.41l.47,0c.34,0,.57-.13.57-.29a3.36,3.36,0,0,0-.21-.86ZM309,87.06c-.13.37-.11.39.34.39h2c.47,0,.5-.06.36-.5l-.88-2.65a10.82,10.82,0,0,0-.37-1h0a9.63,9.63,0,0,0-.39,1Z"/><path class="cls-1" d="M332.21,89.51c0,.49,0,2.42,0,2.84a.29.29,0,0,1-.31.18c-.2-.28-.67-.84-2.08-2.45l-3.77-4.29c-.44-.5-1.54-1.84-1.89-2.19h0a4.06,4.06,0,0,0-.08,1.06v3.54a12.68,12.68,0,0,0,.29,3.37c.1.18.42.28.83.31l.5,0a.3.3,0,0,1,0,.41c-.73,0-1.3,0-1.9,0s-1.12,0-1.69,0a.3.3,0,0,1,0-.41l.44,0c.38,0,.63-.15.71-.32a15.64,15.64,0,0,0,.21-3.35V83.5a1.49,1.49,0,0,0-.36-1.17,1.76,1.76,0,0,0-1-.39l-.28,0a.29.29,0,0,1,0-.41c.68,0,1.54,0,1.84,0a5.13,5.13,0,0,0,.75,0,22.25,22.25,0,0,0,2.78,3.58l1.58,1.77c1.12,1.25,1.92,2.16,2.68,2.94h0a1.65,1.65,0,0,0,.06-.68V85.63a11.45,11.45,0,0,0-.33-3.37c-.1-.15-.36-.24-1-.33l-.28,0c-.11-.1-.1-.36,0-.41.75,0,1.3,0,1.92,0s1.12,0,1.67,0a.29.29,0,0,1,0,.41l-.23,0c-.52.08-.85.21-.91.34a13.12,13.12,0,0,0-.24,3.35Z"/><path class="cls-1" d="M341.88,83.66c0-1.14-.08-1.48-.76-1.58l-.36,0a.24.24,0,0,1,0-.41c1.38-.08,2.7-.13,4.08-.13a10.22,10.22,0,0,1,3.58.49,4.87,4.87,0,0,1,3.3,4.79,5.33,5.33,0,0,1-2.84,4.84,7.85,7.85,0,0,1-3.64.78c-1,0-2.08-.13-2.65-.13s-1.27,0-2,0a.32.32,0,0,1,0-.41l.38,0c.94-.13,1-.32,1-2Zm1.33,5.8a3,3,0,0,0,.33,1.77c.36.5,1,.67,2,.67,3.15,0,4.57-2.06,4.57-5.09C350.1,85,349.24,82,345,82a3.63,3.63,0,0,0-1.61.23c-.13.1-.16.5-.16,1.24Z"/><path class="cls-1" d="M368.48,82.56a5.63,5.63,0,0,1,1.85,4.36,5.54,5.54,0,0,1-5.64,5.62,6.07,6.07,0,0,1-3.36-1l-1.09,1.35a.47.47,0,0,1-.47-.41l1.05-1.32A5.34,5.34,0,0,1,358.91,87a5.62,5.62,0,0,1,5.79-5.74,5.93,5.93,0,0,1,3.27.89l.93-1.17c.24,0,.49.21.49.41Zm-1.19.47a3.72,3.72,0,0,0-2.88-1.24c-1.69,0-3.88,1.15-3.88,4.71a6.77,6.77,0,0,0,1.06,3.74ZM362,90.75A3.75,3.75,0,0,0,364.9,92c2,0,3.8-1.46,3.8-4.66a6.94,6.94,0,0,0-1-3.82Z"/><path class="cls-1" d="M378.85,84c0-1.54,0-1.82-.72-1.9l-.52-.07a.27.27,0,0,1,0-.41c.91-.08,2-.13,3.62-.13A5.76,5.76,0,0,1,384,82a2.42,2.42,0,0,1,1.35,2.28,3,3,0,0,1-2,2.71c-.08.1,0,.26.08.39a17.6,17.6,0,0,0,3.27,4.32,2,2,0,0,0,1.12.45.14.14,0,0,1,0,.23,2.53,2.53,0,0,1-.71.08c-1.38,0-2.21-.41-3.37-2-.42-.6-1.09-1.72-1.59-2.45a1.16,1.16,0,0,0-1.15-.52c-.73,0-.76,0-.76.36v2c0,1.71,0,1.9,1,2l.34,0a.32.32,0,0,1,0,.41c-.73,0-1.28,0-1.93,0s-1.27,0-2,0a.31.31,0,0,1,0-.41l.41,0c.94-.11,1-.32,1-2Zm1.33,2.33a1.29,1.29,0,0,0,0,.54s.29.08,1.12.08a2.72,2.72,0,0,0,1.67-.42,2.33,2.33,0,0,0,.81-2,2.39,2.39,0,0,0-2.6-2.5c-1,0-1.06.06-1.06.52Z"/><path class="cls-1" d="M161.76,91.38a.79.79,0,1,1,1.58,0,.75.75,0,0,1-.79.78A.77.77,0,0,1,161.76,91.38Z"/></g></g></svg>